<svg width="58" height="65" viewBox="0 0 58 65" fill="none" xmlns="http://www.w3.org/2000/svg">
<g clip-path="url(#clip0_336_435)">
<path d="M26.9648 10.915L26.1641 11.0781C24.0745 11.5036 22.4816 13.6321 22.2637 16.1016C22.0544 18.4749 23.1524 20.9673 26.291 22.0479L27.0879 22.3223L26.9521 23.1553L21.2676 57.875C22.3112 58.6966 23.7073 59.5671 25.208 60.4385C26.8591 61.3972 28.7415 62.4155 30.1377 63.2441L29.6279 64.1035L29.1172 64.9639C27.6782 64.1098 25.9895 63.2047 24.2041 62.168C22.4836 61.169 20.7602 60.0953 19.5352 59.041L19.1104 58.6748L19.2012 58.1211L24.8477 23.627C21.3363 22.0671 20.0097 18.8942 20.2715 15.9258C20.5203 13.1069 22.2351 10.2995 24.9648 9.33984V3.86523C22.845 5.16311 19.5973 6.83056 15.9834 8.3125C11.5774 10.1192 6.49257 11.7068 2.12207 11.9863C1.70872 17.2172 2.2603 25.2 5.08301 33.6641C5.17005 33.958 5.26071 34.2527 5.35254 34.5459C7.00494 39.8259 9.41114 44.8999 12.5801 49.4961C12.7563 49.7519 12.9342 50.0049 13.1152 50.2578C12.917 50.41 12.7178 50.5627 12.5195 50.7148C12.3193 50.4711 12.1226 50.2267 11.9268 49.9795C8.4048 45.5375 5.58908 40.5139 3.52344 35.1875L3.18652 34.2969L2.90527 33.4346C0.0843243 24.5434 -0.346459 16.2225 0.211914 10.9219L0.303711 10.0459L1.18457 10.0273C5.37168 9.93538 10.5833 8.3651 15.2246 6.46191C19.8632 4.55979 23.7795 2.38931 25.3652 1.2002L26.9648 0V10.915Z" fill="white"/>
<path d="M30.8081 10.915L31.6089 11.0781C33.6985 11.5036 35.2913 13.6321 35.5093 16.1016C35.7186 18.4749 34.6206 20.9673 31.4819 22.0479L30.6851 22.3223L30.8208 23.1553L36.5054 57.875C35.4618 58.6966 34.0657 59.5671 32.5649 60.4385C30.9138 61.3972 29.0314 62.4155 27.6353 63.2441L28.145 64.1035L28.6558 64.9639C30.0947 64.1098 31.7834 63.2047 33.5688 62.168C35.2893 61.169 37.0128 60.0953 38.2378 59.041L38.6626 58.6748L38.5718 58.1211L32.9253 23.627C36.4366 22.0671 37.7632 18.8942 37.5015 15.9258C37.2527 13.1069 35.5378 10.2995 32.8081 9.33984V3.86523C34.928 5.1631 38.1756 6.83057 41.7896 8.3125C46.1955 10.1192 51.2804 11.7068 55.6509 11.9863C56.0642 17.2172 55.5127 25.2 52.6899 33.6641C52.6029 33.958 52.5122 34.2527 52.4204 34.5459C50.768 39.8259 48.3618 44.8999 45.1929 49.4961C45.0166 49.7519 44.8387 50.0049 44.6577 50.2578C44.856 50.41 45.0551 50.5626 45.2534 50.7148C45.4537 50.4711 45.6503 50.2267 45.8462 49.9795C49.3682 45.5375 52.1839 40.514 54.2495 35.1875L54.5864 34.2969L54.8677 33.4346C57.6886 24.5433 58.1194 16.2225 57.561 10.9219L57.4692 10.0459L56.5884 10.0273C52.4013 9.93536 47.1896 8.36509 42.5483 6.46191C37.9097 4.55979 33.9934 2.38931 32.4077 1.2002L30.8081 0V10.915Z" fill="white"/>
</g>
<defs>
<clipPath id="clip0_336_435">
<rect width="58" height="65" fill="white"/>
</clipPath>
</defs>
</svg>
